# xmcd CD database file
#
# Track frame offsets:
#	150
#	13609
#	28536
#	41590
#	55326
#	80121
#	96026
#	117932
#	135790
#	155859
#
# Disc length: 2359 seconds
#
# Revision: 0
# Processed by: cddbd v1.5.2PL0 Copyright (c) Steve Scherf et al.
# Submitted via: NeoAudio 9.9.9
#
DISCID=7a09350a
DTITLE=Oscar D'Leon - Colleccion De Oro CD2
DYEAR=2004
DGENRE=Salsa
TTITLE0=Niebla del riachuelo
TTITLE1=Nostalgia
TTITLE2=Sonero
TTITLE3=Porque me gusta
TTITLE4=Se necesita rumbero
TTITLE5=Yo la vi
TTITLE6=Me enamore de ti
TTITLE7=Taboga
TTITLE8=Señorita
TTITLE9=Tambo
EXTD=YEAR: 2004
EXTT0=
EXTT1=
EXTT2=
EXTT3=
EXTT4=
EXTT5=
EXTT6=
EXTT7=
EXTT8=
EXTT9=
PLAYORDER=
